<svg width="120" height="40" viewBox="0 0 120 40" fill="none" xmlns="http://www.w3.org/2000/svg">
<rect width="120" height="40" rx="20" fill="#FFCF26"/>
<path d="M22 20L24 18M24 18L31 11L38 18M24 18V28C24 28.2652 24.1054 28.5196 24.2929 28.7071C24.4804 28.8946 24.7348 29 25 29H28M38 18L40 20M38 18V28C38 28.2652 37.8946 28.5196 37.7071 28.7071C37.5196 28.8946 37.2652 29 37 29H34M28 29C28.2652 29 28.5196 28.8946 28.7071 28.7071C28.8946 28.5196 29 28.2652 29 28V24C29 23.7348 29.1054 23.4804 29.2929 23.2929C29.4804 23.1054 29.7348 23 30 23H32C32.2652 23 32.5196 23.1054 32.7071 23.2929C32.8946 23.4804 33 23.7348 33 24V28C33 28.2652 33.1054 28.5196 33.2929 28.7071C33.4804 28.8946 33.7348 29 34 29M28 29H34" stroke="white" stroke-width="2" stroke-linecap="round" stroke-linejoin="round"/>
<path d="M52.032 24V16.08H55.5C56.46 16.08 57.168 16.268 57.624 16.644C58.08 17.02 58.308 17.552 58.308 18.24C58.308 18.664 58.18 19.04 57.924 19.368C57.668 19.696 57.292 19.904 56.796 19.992V20.004C57.348 20.084 57.772 20.292 58.068 20.628C58.364 20.964 58.512 21.364 58.512 21.828C58.512 22.508 58.264 23.04 57.768 23.424C57.28 23.808 56.564 24 55.62 24H52.032ZM53.64 22.752H55.476C55.924 22.752 56.256 22.66 56.472 22.476C56.688 22.292 56.796 22.036 56.796 21.708C56.796 21.372 56.688 21.116 56.472 20.94C56.256 20.764 55.924 20.676 55.476 20.676H53.64V22.752ZM53.64 19.404H55.284C56.156 19.404 56.592 19.064 56.592 18.384C56.592 17.704 56.156 17.364 55.284 17.364H53.64V19.404ZM62.8305 24.12C62.1985 24.12 61.6465 23.996 61.1745 23.748C60.7105 23.5 60.3505 23.144 60.0945 22.68C59.8385 22.216 59.7105 21.656 59.7105 21C59.7105 20.344 59.8385 19.784 60.0945 19.32C60.3505 18.856 60.7065 18.5 61.1625 18.252C61.6265 18.004 62.1545 17.88 62.7465 17.88C63.3545 17.88 63.8705 18.004 64.2945 18.252C64.7185 18.492 65.0425 18.824 65.2665 19.248C65.4905 19.664 65.6025 20.14 65.6025 20.676C65.6025 20.836 65.5985 20.988 65.5905 21.132C65.5825 21.276 65.5705 21.404 65.5545 21.516H60.7665V20.376H64.8345L64.0425 20.664C64.0425 20.16 63.9265 19.772 63.6945 19.5C63.4705 19.228 63.1505 19.092 62.7345 19.092C62.4305 19.092 62.1665 19.164 61.9425 19.308C61.7265 19.452 61.5625 19.668 61.4505 19.956C61.3385 20.236 61.2825 20.592 61.2825 21.024C61.2825 21.448 61.3425 21.8 61.4625 22.08C61.5905 22.352 61.7665 22.556 61.9905 22.692C62.2225 22.828 62.4985 22.896 62.8185 22.896C63.1705 22.896 63.4545 22.828 63.6705 22.692C63.8865 22.556 64.0545 22.368 64.1745 22.128L65.4825 22.632C65.3545 22.944 65.1585 23.212 64.8945 23.436C64.6385 23.66 64.3305 23.832 63.9705 23.952C63.6185 24.064 63.2385 24.12 62.8305 24.12ZM67.1157 24V18H68.5437L68.6517 19.176C68.8117 18.76 69.0437 18.44 69.3477 18.216C69.6597 17.992 70.0477 17.88 70.5117 17.88C70.6477 17.88 70.7717 17.892 70.8837 17.916C70.9957 17.94 71.0877 17.972 71.1597 18.012L70.9677 19.392C70.8877 19.36 70.7877 19.336 70.6677 19.32C70.5557 19.304 70.4077 19.296 70.2237 19.296C69.9837 19.296 69.7517 19.356 69.5277 19.476C69.3037 19.588 69.1197 19.764 68.9757 20.004C68.8317 20.236 68.7597 20.532 68.7597 20.892V24H67.1157ZM75.6128 20.172C75.6128 19.828 75.5128 19.56 75.3128 19.368C75.1208 19.176 74.8648 19.08 74.5448 19.08C74.2488 19.08 73.9888 19.156 73.7648 19.308C73.5408 19.46 73.3768 19.712 73.2728 20.064L71.8688 19.632C72.0048 19.104 72.3008 18.68 72.7568 18.36C73.2208 18.04 73.8408 17.88 74.6168 17.88C75.1448 17.88 75.6048 17.964 75.9968 18.132C76.3888 18.292 76.6928 18.536 76.9088 18.864C77.1328 19.192 77.2448 19.604 77.2448 20.1V22.536C77.2448 22.84 77.3888 22.992 77.6768 22.992C77.8128 22.992 77.9408 22.972 78.0608 22.932L77.9648 23.952C77.7568 24.056 77.4968 24.108 77.1848 24.108C76.9048 24.108 76.6528 24.06 76.4288 23.964C76.2048 23.868 76.0288 23.724 75.9008 23.532C75.7728 23.332 75.7088 23.084 75.7088 22.788V22.74L75.9968 22.692C75.9488 22.996 75.8168 23.256 75.6008 23.472C75.3848 23.68 75.1208 23.84 74.8088 23.952C74.5048 24.064 74.1888 24.12 73.8608 24.12C73.4528 24.12 73.1008 24.06 72.8048 23.94C72.5088 23.812 72.2808 23.628 72.1208 23.388C71.9608 23.148 71.8808 22.852 71.8808 22.5C71.8808 22.052 72.0248 21.688 72.3128 21.408C72.6008 21.12 73.0128 20.924 73.5488 20.82L75.8048 20.364L75.7928 21.384L74.3528 21.672C74.0808 21.728 73.8728 21.804 73.7288 21.9C73.5928 21.988 73.5248 22.136 73.5248 22.344C73.5248 22.544 73.5968 22.696 73.7408 22.8C73.8928 22.904 74.0728 22.956 74.2808 22.956C74.4488 22.956 74.6128 22.936 74.7728 22.896C74.9328 22.856 75.0768 22.792 75.2048 22.704C75.3328 22.616 75.4328 22.496 75.5048 22.344C75.5768 22.192 75.6128 22.008 75.6128 21.792V20.172ZM79.2034 24V18H80.6794L80.7754 19.8L80.5714 19.608C80.6674 19.216 80.8194 18.892 81.0274 18.636C81.2354 18.38 81.4874 18.192 81.7834 18.072C82.0874 17.944 82.4194 17.88 82.7794 17.88C83.1954 17.88 83.5634 17.96 83.8834 18.12C84.2114 18.28 84.4674 18.524 84.6514 18.852C84.8434 19.172 84.9394 19.576 84.9394 20.064V24H83.2954V20.532C83.2954 20.02 83.1954 19.668 82.9954 19.476C82.7954 19.276 82.5354 19.176 82.2154 19.176C81.9914 19.176 81.7714 19.232 81.5554 19.344C81.3474 19.448 81.1754 19.62 81.0394 19.86C80.9114 20.1 80.8474 20.42 80.8474 20.82V24H79.2034ZM89.0211 24.12C88.5251 24.12 88.0811 23.996 87.6891 23.748C87.3051 23.5 87.0011 23.144 86.7771 22.68C86.5611 22.216 86.4531 21.66 86.4531 21.012C86.4531 20.348 86.5691 19.784 86.8011 19.32C87.0331 18.848 87.3451 18.492 87.7371 18.252C88.1371 18.004 88.5851 17.88 89.0811 17.88C89.6091 17.88 90.0451 18.032 90.3891 18.336C90.7331 18.64 90.9571 19.032 91.0611 19.512L90.9051 19.704V15.372H92.5491V24H91.0731L90.9651 22.176L91.1691 22.272C91.1131 22.648 90.9851 22.976 90.7851 23.256C90.5851 23.528 90.3331 23.74 90.0291 23.892C89.7251 24.044 89.3891 24.12 89.0211 24.12ZM89.5011 22.86C89.7891 22.86 90.0371 22.788 90.2451 22.644C90.4531 22.492 90.6131 22.272 90.7251 21.984C90.8451 21.696 90.9051 21.352 90.9051 20.952C90.9051 20.568 90.8491 20.244 90.7371 19.98C90.6251 19.708 90.4651 19.5 90.2571 19.356C90.0491 19.212 89.8051 19.14 89.5251 19.14C89.0771 19.14 88.7251 19.3 88.4691 19.62C88.2211 19.932 88.0971 20.392 88.0971 21C88.0971 21.608 88.2211 22.072 88.4691 22.392C88.7171 22.704 89.0611 22.86 89.5011 22.86ZM97.8165 20.172C97.8165 19.828 97.7165 19.56 97.5165 19.368C97.3245 19.176 97.0685 19.08 96.7485 19.08C96.4525 19.08 96.1925 19.156 95.9685 19.308C95.7445 19.46 95.5805 19.712 95.4765 20.064L94.0725 19.632C94.2085 19.104 94.5045 18.68 94.9605 18.36C95.4245 18.04 96.0445 17.88 96.8205 17.88C97.3485 17.88 97.8085 17.964 98.2005 18.132C98.5925 18.292 98.8965 18.536 99.1125 18.864C99.3365 19.192 99.4485 19.604 99.4485 20.1V22.536C99.4485 22.84 99.5925 22.992 99.8805 22.992C100.017 22.992 100.145 22.972 100.265 22.932L100.169 23.952C99.9605 24.056 99.7005 24.108 99.3885 24.108C99.1085 24.108 98.8565 24.06 98.6325 23.964C98.4085 23.868 98.2325 23.724 98.1045 23.532C97.9765 23.332 97.9125 23.084 97.9125 22.788V22.74L98.2005 22.692C98.1525 22.996 98.0205 23.256 97.8045 23.472C97.5885 23.68 97.3245 23.84 97.0125 23.952C96.7085 24.064 96.3925 24.12 96.0645 24.12C95.6565 24.12 95.3045 24.06 95.0085 23.94C94.7125 23.812 94.4845 23.628 94.3245 23.388C94.1645 23.148 94.0845 22.852 94.0845 22.5C94.0845 22.052 94.2285 21.688 94.5165 21.408C94.8045 21.12 95.2165 20.924 95.7525 20.82L98.0085 20.364L97.9965 21.384L96.5565 21.672C96.2845 21.728 96.0765 21.804 95.9325 21.9C95.7965 21.988 95.7285 22.136 95.7285 22.344C95.7285 22.544 95.8005 22.696 95.9445 22.8C96.0965 22.904 96.2765 22.956 96.4845 22.956C96.6525 22.956 96.8165 22.936 96.9765 22.896C97.1365 22.856 97.2805 22.792 97.4085 22.704C97.5365 22.616 97.6365 22.496 97.7085 22.344C97.7805 22.192 97.8165 22.008 97.8165 21.792V20.172Z" fill="white"/>
</svg>
