<svg viewBox="0 0 445 570" fill="none" xmlns="http://www.w3.org/2000/svg">
<path d="M0 120.689C101.99 120.689 184.668 203.368 184.668 305.357V570C82.6788 570 0 487.321 0 385.332V120.689Z" fill="#FED025"/>
<path d="M394.055 120.689C292.065 120.689 209.386 203.368 209.386 305.357V570C311.376 570 394.055 487.321 394.055 385.332V120.689Z" fill="#FED025"/>
<path d="M196.296 255.191C205.2 211.724 215.14 189.775 243.554 154.86C276.625 121.783 299.246 109.51 346.793 97.4234C381.597 88.7495 403.3 85.7065 444.217 82.1556C430.268 69.4769 420.972 63.9909 400.594 57.4362C385.713 54.7857 377.291 54.0549 362.061 54.528C379.269 34.9471 385.519 22.9799 388.235 0C377.257 9.8313 370.786 12.7681 359.153 17.449C347.52 22.1299 309.999 34.9672 278.452 43.6224L258.094 57.4362C258.62 66.0594 258.85 70.9162 258.094 79.9744C235.278 93.2548 225.428 102.373 210.11 119.962C187.341 173.014 184.936 202.604 196.296 255.191Z" fill="#FED025"/>
<path d="M179.593 55.2551C200.089 55.2552 218.974 61.1976 234.055 71.1917L223.685 83.4778C211.688 75.8977 196.611 71.2503 179.593 71.2502C137.469 71.2503 107.23 99.7248 106.19 130.674L90.481 125.83C94.306 86.3057 132.742 55.2552 179.593 55.2551Z" fill="#FED025"/>
</svg>
