<svg width="623" height="800" viewBox="0 0 623 800" fill="none" xmlns="http://www.w3.org/2000/svg">
<mask id="mask0_459_12" style="mask-type:alpha" maskUnits="userSpaceOnUse" x="0" y="0" width="623" height="800">
<mask id="mask1_459_12" style="mask-type:alpha" maskUnits="userSpaceOnUse" x="0" y="0" width="623" height="800">
<path d="M0 169.263C143.037 169.263 258.992 285.217 258.992 428.254V799.408C115.955 799.408 0 683.454 0 540.416V169.263Z" fill="#FED025"/>
<path d="M552.65 169.263C409.613 169.263 293.658 285.217 293.658 428.254V799.408C436.695 799.408 552.65 683.454 552.65 540.416V169.263Z" fill="#FED025"/>
<path d="M275.299 357.898C287.785 296.937 301.727 266.154 341.576 217.186C387.957 170.797 419.683 153.584 486.367 136.633C535.177 124.468 565.616 120.201 623 115.221C603.437 97.4393 590.4 89.7453 561.821 80.5525C540.95 76.8353 529.139 75.8103 507.779 76.4739C531.913 49.0123 540.678 32.2287 544.487 0C529.091 13.7881 520.015 17.9068 503.701 24.4717C487.386 31.0365 434.764 49.0405 390.519 61.1791L361.969 80.5525C362.706 92.6463 363.028 99.4578 361.969 112.162C329.97 130.787 316.155 143.575 294.672 168.243C262.74 242.646 259.366 284.146 275.299 357.898Z" fill="#FED025"/>
<path d="M251.874 77.4937C280.618 77.4937 307.103 85.8281 328.254 99.8442L313.711 117.076C296.886 106.445 275.74 99.9263 251.874 99.9263C192.796 99.9264 150.388 139.861 148.929 183.266L126.897 176.473C132.261 121.041 186.165 77.4938 251.874 77.4937Z" fill="#FED025"/>
</mask>
<g mask="url(#mask1_459_12)">
<rect x="-98" y="-195" width="1007" height="1286" fill="#EFBF04"/>
</g>
</mask>
<g mask="url(#mask0_459_12)">
<rect x="-103" y="-71" width="760" height="997" fill="white"/>
</g>
</svg>
