<svg width="120" height="40" viewBox="0 0 120 40" fill="none" xmlns="http://www.w3.org/2000/svg">
<rect width="120" height="40" rx="20" fill="#FFCF26"/>
<path d="M42.0004 22.1001C42.9851 22.1001 43.9607 22.2945 44.8705 22.6714C45.7801 23.0482 46.6068 23.6002 47.3031 24.2964C47.9995 24.9928 48.5522 25.82 48.9291 26.73C49.1906 27.3612 49.362 28.0242 49.4437 28.6997H34.557C34.6387 28.0242 34.8092 27.3612 35.0707 26.73C35.4476 25.82 36.0002 24.9928 36.6967 24.2964C37.3931 23.6 38.2204 23.0483 39.1302 22.6714C40.0401 22.2945 41.0155 22.1001 42.0004 22.1001ZM42.0004 12.5005C42.7163 12.5006 43.4033 12.7843 43.9095 13.2905C44.4158 13.7968 44.6995 14.4838 44.6996 15.1997C44.6996 15.9156 44.4156 16.6026 43.9095 17.1089C43.4033 17.6151 42.7163 17.8998 42.0004 17.8999C41.2843 17.8999 40.5975 17.6152 40.0912 17.1089C39.5848 16.6025 39.3002 15.9158 39.3002 15.1997C39.3003 14.4838 39.5849 13.7968 40.0912 13.2905C40.5975 12.7844 41.2845 12.5005 42.0004 12.5005Z" stroke="white" stroke-width="1.8"/>
<path d="M65.924 15.96C66.644 15.96 67.276 16.084 67.82 16.332C68.364 16.58 68.828 16.948 69.212 17.436L68.288 18.504C67.96 18.088 67.6 17.784 67.208 17.592C66.824 17.392 66.376 17.292 65.864 17.292C65.528 17.292 65.248 17.336 65.024 17.424C64.808 17.512 64.648 17.628 64.544 17.772C64.448 17.916 64.4 18.076 64.4 18.252C64.4 18.468 64.484 18.652 64.652 18.804C64.82 18.948 65.108 19.068 65.516 19.164L66.992 19.5C67.776 19.676 68.336 19.94 68.672 20.292C69.016 20.636 69.188 21.084 69.188 21.636C69.188 22.156 69.052 22.604 68.78 22.98C68.508 23.348 68.128 23.632 67.64 23.832C67.152 24.024 66.592 24.12 65.96 24.12C65.408 24.12 64.9 24.056 64.436 23.928C63.98 23.792 63.572 23.608 63.212 23.376C62.852 23.144 62.552 22.876 62.312 22.572L63.248 21.456C63.432 21.712 63.66 21.94 63.932 22.14C64.204 22.34 64.512 22.5 64.856 22.62C65.208 22.732 65.576 22.788 65.96 22.788C66.288 22.788 66.564 22.752 66.788 22.68C67.02 22.6 67.192 22.492 67.304 22.356C67.424 22.212 67.484 22.04 67.484 21.84C67.484 21.632 67.412 21.456 67.268 21.312C67.132 21.16 66.876 21.044 66.5 20.964L64.892 20.604C64.428 20.492 64.028 20.348 63.692 20.172C63.364 19.988 63.112 19.756 62.936 19.476C62.768 19.188 62.684 18.848 62.684 18.456C62.684 17.984 62.812 17.56 63.068 17.184C63.324 16.808 63.692 16.512 64.172 16.296C64.66 16.072 65.244 15.96 65.924 15.96ZM74.0563 20.172C74.0563 19.828 73.9563 19.56 73.7563 19.368C73.5643 19.176 73.3083 19.08 72.9883 19.08C72.6923 19.08 72.4323 19.156 72.2083 19.308C71.9843 19.46 71.8203 19.712 71.7163 20.064L70.3123 19.632C70.4483 19.104 70.7443 18.68 71.2003 18.36C71.6643 18.04 72.2843 17.88 73.0603 17.88C73.5883 17.88 74.0483 17.964 74.4403 18.132C74.8323 18.292 75.1363 18.536 75.3523 18.864C75.5763 19.192 75.6883 19.604 75.6883 20.1V22.536C75.6883 22.84 75.8323 22.992 76.1203 22.992C76.2563 22.992 76.3843 22.972 76.5043 22.932L76.4083 23.952C76.2003 24.056 75.9403 24.108 75.6283 24.108C75.3483 24.108 75.0963 24.06 74.8723 23.964C74.6483 23.868 74.4723 23.724 74.3443 23.532C74.2163 23.332 74.1523 23.084 74.1523 22.788V22.74L74.4403 22.692C74.3923 22.996 74.2603 23.256 74.0443 23.472C73.8283 23.68 73.5643 23.84 73.2523 23.952C72.9483 24.064 72.6323 24.12 72.3043 24.12C71.8963 24.12 71.5443 24.06 71.2483 23.94C70.9523 23.812 70.7243 23.628 70.5643 23.388C70.4043 23.148 70.3243 22.852 70.3243 22.5C70.3243 22.052 70.4683 21.688 70.7563 21.408C71.0443 21.12 71.4563 20.924 71.9923 20.82L74.2483 20.364L74.2363 21.384L72.7963 21.672C72.5243 21.728 72.3163 21.804 72.1723 21.9C72.0363 21.988 71.9683 22.136 71.9683 22.344C71.9683 22.544 72.0403 22.696 72.1843 22.8C72.3363 22.904 72.5163 22.956 72.7243 22.956C72.8923 22.956 73.0563 22.936 73.2163 22.896C73.3763 22.856 73.5203 22.792 73.6483 22.704C73.7763 22.616 73.8763 22.496 73.9483 22.344C74.0203 22.192 74.0563 22.008 74.0563 21.792V20.172ZM82.912 18L80.488 24.372C80.296 24.916 80.08 25.348 79.84 25.668C79.608 25.988 79.336 26.22 79.024 26.364C78.72 26.508 78.356 26.58 77.932 26.58C77.62 26.58 77.332 26.54 77.068 26.46C76.812 26.388 76.588 26.292 76.396 26.172L76.744 24.984C76.896 25.104 77.056 25.188 77.224 25.236C77.392 25.292 77.584 25.32 77.8 25.32C78.024 25.32 78.216 25.272 78.376 25.176C78.544 25.08 78.684 24.888 78.796 24.6L79 24.084L78.34 22.524L76.504 18H78.328L79.468 21.6L79.78 22.8L80.152 21.528L81.244 18H82.912ZM87.2338 20.172C87.2338 19.828 87.1338 19.56 86.9338 19.368C86.7418 19.176 86.4858 19.08 86.1658 19.08C85.8698 19.08 85.6098 19.156 85.3858 19.308C85.1618 19.46 84.9978 19.712 84.8938 20.064L83.4898 19.632C83.6258 19.104 83.9218 18.68 84.3778 18.36C84.8418 18.04 85.4618 17.88 86.2378 17.88C86.7658 17.88 87.2258 17.964 87.6178 18.132C88.0098 18.292 88.3138 18.536 88.5298 18.864C88.7538 19.192 88.8658 19.604 88.8658 20.1V22.536C88.8658 22.84 89.0098 22.992 89.2978 22.992C89.4338 22.992 89.5618 22.972 89.6818 22.932L89.5858 23.952C89.3778 24.056 89.1178 24.108 88.8058 24.108C88.5258 24.108 88.2738 24.06 88.0498 23.964C87.8258 23.868 87.6498 23.724 87.5218 23.532C87.3938 23.332 87.3298 23.084 87.3298 22.788V22.74L87.6178 22.692C87.5698 22.996 87.4378 23.256 87.2218 23.472C87.0058 23.68 86.7418 23.84 86.4298 23.952C86.1258 24.064 85.8098 24.12 85.4818 24.12C85.0738 24.12 84.7218 24.06 84.4258 23.94C84.1298 23.812 83.9018 23.628 83.7418 23.388C83.5818 23.148 83.5018 22.852 83.5018 22.5C83.5018 22.052 83.6458 21.688 83.9338 21.408C84.2218 21.12 84.6338 20.924 85.1698 20.82L87.4258 20.364L87.4138 21.384L85.9738 21.672C85.7018 21.728 85.4938 21.804 85.3498 21.9C85.2138 21.988 85.1458 22.136 85.1458 22.344C85.1458 22.544 85.2178 22.696 85.3618 22.8C85.5138 22.904 85.6938 22.956 85.9018 22.956C86.0698 22.956 86.2338 22.936 86.3938 22.896C86.5538 22.856 86.6978 22.792 86.8258 22.704C86.9538 22.616 87.0538 22.496 87.1258 22.344C87.1978 22.192 87.2338 22.008 87.2338 21.792V20.172Z" fill="white"/>
</svg>
