<svg width="120" height="40" viewBox="0 0 120 40" fill="none" xmlns="http://www.w3.org/2000/svg">
<rect width="120" height="40" rx="20" fill="#FFCF26"/>
<path d="M27.5 13H25.5C24.9696 13 24.4609 13.2107 24.0858 13.5858C23.7107 13.9609 23.5 14.4696 23.5 15V27C23.5 27.5304 23.7107 28.0391 24.0858 28.4142C24.4609 28.7893 24.9696 29 25.5 29H35.5C36.0304 29 36.5391 28.7893 36.9142 28.4142C37.2893 28.0391 37.5 27.5304 37.5 27V15C37.5 14.4696 37.2893 13.9609 36.9142 13.5858C36.5391 13.2107 36.0304 13 35.5 13H33.5M27.5 13C27.5 13.5304 27.7107 14.0391 28.0858 14.4142C28.4609 14.7893 28.9696 15 29.5 15H31.5C32.0304 15 32.5391 14.7893 32.9142 14.4142C33.2893 14.0391 33.5 13.5304 33.5 13M27.5 13C27.5 12.4696 27.7107 11.9609 28.0858 11.5858C28.4609 11.2107 28.9696 11 29.5 11H31.5C32.0304 11 32.5391 11.2107 32.9142 11.5858C33.2893 11.9609 33.5 12.4696 33.5 13M30.5 20H33.5M30.5 24H33.5M27.5 20H27.51M27.5 24H27.51" stroke="white" stroke-width="2" stroke-linecap="round" stroke-linejoin="round"/>
<path d="M54.856 16.08C55.464 16.08 55.984 16.184 56.416 16.392C56.848 16.592 57.18 16.884 57.412 17.268C57.652 17.644 57.772 18.1 57.772 18.636C57.772 19.172 57.652 19.632 57.412 20.016C57.18 20.392 56.848 20.684 56.416 20.892C55.984 21.092 55.464 21.192 54.856 21.192H53.188V24H51.532V16.08H54.856ZM54.604 19.884C55.1 19.884 55.472 19.78 55.72 19.572C55.968 19.356 56.092 19.044 56.092 18.636C56.092 18.22 55.968 17.908 55.72 17.7C55.472 17.492 55.1 17.388 54.604 17.388H53.188V19.884H54.604ZM61.8735 24.12C61.2415 24.12 60.6895 23.996 60.2175 23.748C59.7535 23.5 59.3935 23.144 59.1375 22.68C58.8815 22.216 58.7535 21.656 58.7535 21C58.7535 20.344 58.8815 19.784 59.1375 19.32C59.3935 18.856 59.7495 18.5 60.2055 18.252C60.6695 18.004 61.1975 17.88 61.7895 17.88C62.3975 17.88 62.9135 18.004 63.3375 18.252C63.7615 18.492 64.0855 18.824 64.3095 19.248C64.5335 19.664 64.6455 20.14 64.6455 20.676C64.6455 20.836 64.6415 20.988 64.6335 21.132C64.6255 21.276 64.6135 21.404 64.5975 21.516H59.8095V20.376H63.8775L63.0855 20.664C63.0855 20.16 62.9695 19.772 62.7375 19.5C62.5135 19.228 62.1935 19.092 61.7775 19.092C61.4735 19.092 61.2095 19.164 60.9855 19.308C60.7695 19.452 60.6055 19.668 60.4935 19.956C60.3815 20.236 60.3255 20.592 60.3255 21.024C60.3255 21.448 60.3855 21.8 60.5055 22.08C60.6335 22.352 60.8095 22.556 61.0335 22.692C61.2655 22.828 61.5415 22.896 61.8615 22.896C62.2135 22.896 62.4975 22.828 62.7135 22.692C62.9295 22.556 63.0975 22.368 63.2175 22.128L64.5255 22.632C64.3975 22.944 64.2015 23.212 63.9375 23.436C63.6815 23.66 63.3735 23.832 63.0135 23.952C62.6615 24.064 62.2815 24.12 61.8735 24.12ZM68.5587 24.12C67.9507 24.12 67.3947 24.012 66.8907 23.796C66.3947 23.58 65.9907 23.276 65.6787 22.884L66.6267 21.924C66.8187 22.212 67.0747 22.448 67.3947 22.632C67.7147 22.816 68.0947 22.908 68.5347 22.908C68.8467 22.908 69.0947 22.864 69.2787 22.776C69.4707 22.68 69.5667 22.532 69.5667 22.332C69.5667 22.204 69.5227 22.096 69.4347 22.008C69.3467 21.912 69.1707 21.836 68.9067 21.78L67.8507 21.564C67.1547 21.42 66.6587 21.204 66.3627 20.916C66.0747 20.62 65.9307 20.24 65.9307 19.776C65.9307 19.448 66.0267 19.14 66.2187 18.852C66.4187 18.564 66.7147 18.332 67.1067 18.156C67.4987 17.972 67.9867 17.88 68.5707 17.88C69.1707 17.88 69.6907 17.976 70.1307 18.168C70.5787 18.352 70.9307 18.628 71.1867 18.996L70.2027 19.956C70.0267 19.676 69.7947 19.464 69.5067 19.32C69.2267 19.168 68.9307 19.092 68.6187 19.092C68.3947 19.092 68.2027 19.116 68.0427 19.164C67.8827 19.212 67.7627 19.28 67.6827 19.368C67.6027 19.448 67.5627 19.552 67.5627 19.68C67.5627 19.808 67.6187 19.92 67.7307 20.016C67.8427 20.104 68.0467 20.18 68.3427 20.244L69.5667 20.496C70.1587 20.616 70.5827 20.82 70.8387 21.108C71.0947 21.388 71.2227 21.728 71.2227 22.128C71.2227 22.512 71.1187 22.856 70.9107 23.16C70.7107 23.456 70.4107 23.692 70.0107 23.868C69.6187 24.036 69.1347 24.12 68.5587 24.12ZM76.0737 20.172C76.0737 19.828 75.9737 19.56 75.7737 19.368C75.5817 19.176 75.3257 19.08 75.0057 19.08C74.7097 19.08 74.4497 19.156 74.2257 19.308C74.0017 19.46 73.8377 19.712 73.7337 20.064L72.3297 19.632C72.4657 19.104 72.7617 18.68 73.2177 18.36C73.6817 18.04 74.3017 17.88 75.0777 17.88C75.6057 17.88 76.0657 17.964 76.4577 18.132C76.8497 18.292 77.1537 18.536 77.3697 18.864C77.5937 19.192 77.7057 19.604 77.7057 20.1V22.536C77.7057 22.84 77.8497 22.992 78.1377 22.992C78.2737 22.992 78.4017 22.972 78.5217 22.932L78.4257 23.952C78.2177 24.056 77.9577 24.108 77.6457 24.108C77.3657 24.108 77.1137 24.06 76.8897 23.964C76.6657 23.868 76.4897 23.724 76.3617 23.532C76.2337 23.332 76.1697 23.084 76.1697 22.788V22.74L76.4577 22.692C76.4097 22.996 76.2777 23.256 76.0617 23.472C75.8457 23.68 75.5817 23.84 75.2697 23.952C74.9657 24.064 74.6497 24.12 74.3217 24.12C73.9137 24.12 73.5617 24.06 73.2657 23.94C72.9697 23.812 72.7417 23.628 72.5817 23.388C72.4217 23.148 72.3417 22.852 72.3417 22.5C72.3417 22.052 72.4857 21.688 72.7737 21.408C73.0617 21.12 73.4737 20.924 74.0097 20.82L76.2657 20.364L76.2537 21.384L74.8137 21.672C74.5417 21.728 74.3337 21.804 74.1897 21.9C74.0537 21.988 73.9857 22.136 73.9857 22.344C73.9857 22.544 74.0577 22.696 74.2017 22.8C74.3537 22.904 74.5337 22.956 74.7417 22.956C74.9097 22.956 75.0737 22.936 75.2337 22.896C75.3937 22.856 75.5377 22.792 75.6657 22.704C75.7937 22.616 75.8937 22.496 75.9657 22.344C76.0377 22.192 76.0737 22.008 76.0737 21.792V20.172ZM79.6643 24V18H81.1403L81.2363 19.8L81.0323 19.608C81.1283 19.216 81.2803 18.892 81.4883 18.636C81.6963 18.38 81.9483 18.192 82.2443 18.072C82.5483 17.944 82.8803 17.88 83.2403 17.88C83.6563 17.88 84.0243 17.96 84.3443 18.12C84.6723 18.28 84.9283 18.524 85.1123 18.852C85.3043 19.172 85.4003 19.576 85.4003 20.064V24H83.7563V20.532C83.7563 20.02 83.6563 19.668 83.4563 19.476C83.2563 19.276 82.9963 19.176 82.6763 19.176C82.4523 19.176 82.2323 19.232 82.0163 19.344C81.8083 19.448 81.6363 19.62 81.5003 19.86C81.3723 20.1 81.3083 20.42 81.3083 20.82V24H79.6643ZM90.634 20.172C90.634 19.828 90.534 19.56 90.334 19.368C90.142 19.176 89.886 19.08 89.566 19.08C89.27 19.08 89.01 19.156 88.786 19.308C88.562 19.46 88.398 19.712 88.294 20.064L86.89 19.632C87.026 19.104 87.322 18.68 87.778 18.36C88.242 18.04 88.862 17.88 89.638 17.88C90.166 17.88 90.626 17.964 91.018 18.132C91.41 18.292 91.714 18.536 91.93 18.864C92.154 19.192 92.266 19.604 92.266 20.1V22.536C92.266 22.84 92.41 22.992 92.698 22.992C92.834 22.992 92.962 22.972 93.082 22.932L92.986 23.952C92.778 24.056 92.518 24.108 92.206 24.108C91.926 24.108 91.674 24.06 91.45 23.964C91.226 23.868 91.05 23.724 90.922 23.532C90.794 23.332 90.73 23.084 90.73 22.788V22.74L91.018 22.692C90.97 22.996 90.838 23.256 90.622 23.472C90.406 23.68 90.142 23.84 89.83 23.952C89.526 24.064 89.21 24.12 88.882 24.12C88.474 24.12 88.122 24.06 87.826 23.94C87.53 23.812 87.302 23.628 87.142 23.388C86.982 23.148 86.902 22.852 86.902 22.5C86.902 22.052 87.046 21.688 87.334 21.408C87.622 21.12 88.034 20.924 88.57 20.82L90.826 20.364L90.814 21.384L89.374 21.672C89.102 21.728 88.894 21.804 88.75 21.9C88.614 21.988 88.546 22.136 88.546 22.344C88.546 22.544 88.618 22.696 88.762 22.8C88.914 22.904 89.094 22.956 89.302 22.956C89.47 22.956 89.634 22.936 89.794 22.896C89.954 22.856 90.098 22.792 90.226 22.704C90.354 22.616 90.454 22.496 90.526 22.344C90.598 22.192 90.634 22.008 90.634 21.792V20.172ZM94.2246 24V18H95.7006L95.7966 19.8L95.5926 19.608C95.6886 19.216 95.8406 18.892 96.0486 18.636C96.2566 18.38 96.5086 18.192 96.8046 18.072C97.1086 17.944 97.4406 17.88 97.8006 17.88C98.2166 17.88 98.5846 17.96 98.9046 18.12C99.2326 18.28 99.4886 18.524 99.6726 18.852C99.8646 19.172 99.9606 19.576 99.9606 20.064V24H98.3166V20.532C98.3166 20.02 98.2166 19.668 98.0166 19.476C97.8166 19.276 97.5566 19.176 97.2366 19.176C97.0126 19.176 96.7926 19.232 96.5766 19.344C96.3686 19.448 96.1966 19.62 96.0606 19.86C95.9326 20.1 95.8686 20.42 95.8686 20.82V24H94.2246Z" fill="white"/>
</svg>
