<svg width="24" height="24" viewBox="0 0 24 24" fill="none" xmlns="http://www.w3.org/2000/svg">
<path d="M12.0004 14.1C12.9851 14.1 13.9607 14.2944 14.8705 14.6713C15.7801 15.0481 16.6068 15.6001 17.3031 16.2963C17.9995 16.9927 18.5522 17.8199 18.9291 18.7299C19.1906 19.3611 19.362 20.024 19.4437 20.6996H4.55701C4.63872 20.0241 4.80923 19.3611 5.07068 18.7299C5.44759 17.8199 6.00022 16.9927 6.69666 16.2963C7.39305 15.5999 8.22039 15.0481 9.13025 14.6713C10.0401 14.2944 11.0155 14.1 12.0004 14.1ZM12.0004 4.50037C12.7163 4.50047 13.4033 4.78415 13.9095 5.29041C14.4158 5.79666 14.6995 6.48364 14.6996 7.19958C14.6996 7.91549 14.4156 8.60245 13.9095 9.10876C13.4033 9.61502 12.7163 9.89968 12.0004 9.89978C11.2843 9.89978 10.5975 9.61511 10.0912 9.10876C9.58484 8.60242 9.30017 7.91567 9.30017 7.19958C9.30027 6.48364 9.58493 5.79666 10.0912 5.29041C10.5975 4.7843 11.2845 4.50037 12.0004 4.50037Z" stroke="#1E431D" stroke-width="1.8"/>
</svg>
